<svg height='100px' width='100px'  fill="#000000" xmlns="http://www.w3.org/2000/svg" xmlns:xlink="http://www.w3.org/1999/xlink" version="1.1" x="0px" y="0px" viewBox="0 0 100 100" style="enable-background:new 0 0 100 100;" xml:space="preserve"><g><path d="M33.8,17.6l-8.4,8.5l-2.8-2.8c-0.8-0.8-2-0.8-2.8,0c-0.8,0.8-0.8,2,0,2.8l4.2,4.3c0.4,0.4,0.9,0.6,1.4,0.6   c0.5,0,1-0.2,1.4-0.6l9.8-10c0.8-0.8,0.8-2.1,0-2.8C35.9,16.8,34.6,16.8,33.8,17.6z"></path><path d="M33.8,41.6l-8.4,8.5l-2.8-2.8c-0.8-0.8-2-0.8-2.8,0c-0.8,0.8-0.8,2,0,2.8l4.2,4.3c0.4,0.4,0.9,0.6,1.4,0.6   c0.5,0,1-0.2,1.4-0.6l9.8-10c0.8-0.8,0.8-2.1,0-2.8C35.9,40.8,34.6,40.8,33.8,41.6z"></path><path d="M45.3,21h26c1.1,0,2-0.9,2-2c0-1.1-0.9-2-2-2h-26c-1.1,0-2,0.9-2,2C43.3,20.1,44.2,21,45.3,21z"></path><path d="M45.3,31h26c1.1,0,2-0.9,2-2c0-1.1-0.9-2-2-2h-26c-1.1,0-2,0.9-2,2C43.3,30.1,44.2,31,45.3,31z"></path><path d="M31.3,67h-6c-3.3,0-6,2.7-6,6v6c0,3.3,2.7,6,6,6h6c3.3,0,6-2.7,6-6v-6C37.3,69.7,34.6,67,31.3,67z M33.3,79   c0,1.1-0.9,2-2,2h-6c-1.1,0-2-0.9-2-2v-6c0-1.1,0.9-2,2-2h6c1.1,0,2,0.9,2,2V79z"></path><path d="M88.4,35.1l-5.2-4V11c0-3.3-2.7-6-6-6h-62c-3.3,0-6,2.7-6,6v78c0,3.3,2.7,6,6,6h62c3.3,0,6-2.7,6-6V51.5l2.5-3.2   c0,0,0,0,0,0l3.7-4.7C91.5,40.9,91.1,37.1,88.4,35.1z M79.3,89c0,1.1-0.9,2-2,2h-62c-1.1,0-2-0.9-2-2V11c0-1.1,0.9-2,2-2h62   c1.1,0,2,0.9,2,2v18c-0.5-0.1-1-0.1-1.5,0c-1.6,0.2-3,1-4,2.3L66.1,41H45.3c-1.1,0-2,0.9-2,2c0,1.1,0.9,2,2,2H63l-4.7,6h-13   c-1.1,0-2,0.9-2,2c0,1.1,0.9,2,2,2h9.9L45,68c-0.8,1.1-1.3,2.4-1.3,3.8l0.1,11.4c0,0.6,0.3,1.2,0.8,1.6c0.4,0.3,0.8,0.4,1.2,0.4   c0.2,0,0.3,0,0.5,0l11.1-2.6c1.3-0.3,2.5-1.1,3.3-2.1l18.5-23.6V89z M57.7,77.8c-0.3,0.4-0.7,0.6-1.1,0.7l-8.7,2.1l-0.1-8.9   c0-0.5,0.1-0.9,0.4-1.2L71.9,40l9.5,7.4L57.7,77.8z M86.3,41.1l-2.5,3.2l-9.5-7.4l2.5-3.1c0.3-0.4,0.8-0.7,1.3-0.8   c0.1,0,0.2,0,0.2,0c0.4,0,0.9,0.2,1.2,0.4l6.3,4.9C86.9,38.9,87,40.2,86.3,41.1z"></path></g></svg>